<?xml version="1.0" encoding="UTF-8"?>
<svg id="Layer_2" data-name="Layer 2" xmlns="http://www.w3.org/2000/svg" width="1025.001" height="1025" viewBox="0 0 1025.001 1025">
  <path d="M94.55,235.601C45.09,310.409,15.209,399.292,12.192,494.952c.535-11.822,1.892-24.64,2.753-33.057,8.239-80.564,35.529-158.935,79.606-226.294Z" style="fill: #021e43;"/>
  <path d="M913.901,805.314c-.555.833-.672,2.695-1.166,4.658,1.65-2.209,3.277-4.436,4.891-6.673-1.644.918-3.309,1.391-3.725,2.015Z" style="fill: #021e43;"/>
  <path d="M417.461,985.261c1.377-2.7-.732-4.459,1.224-6.716,5.216-6.021,24.02-7.104,33.259-16.372,1.595-1.6,4.261-7.13,5.381-7.388.656-.152,8.024,4.746,10.57,5.469,4.161,1.182,18.472,2.945,22.677,2.656,7.27-.499,21.294-9.484,30.2-11.356,16.718-3.513,35.944-3.29,52.53-6.18,3.897-.679,23.156-6.967,24.854-5.657l-3.365,6.219c1.237,2.708,5.491,2.878,5.65,5.88.251,4.718-9.159,6.244-6.735,13.749.906,2.805,17.496,5.323,21.103,5.47,8.399.342,17.977-2.82,26.46-1.188,3.239.623,3.706,3.956,6.95,4.583,5.99,1.159,17.059-1.169,24.191-1.185,6.112-.013,11.108,3.403,17.039-1.266,4.228-3.328,8.565-16.449,1.889-18.948,11.918-10.05,27.815-6.562,41.708-8.97,3.13-.542,32.436-11.074,35.744-12.658,6.866-3.288,11.56-11.671,18.82-15.799,9.428-5.361,24.113-5.318,28.225-17.912,2.763-8.463-2.354-33.01-7.333-40.682-.915-1.411-2.963-1.748-3.146-2.074-.281-.501,2.596-7.538-3.906-6.594-2.111.306-12.383,8.418-13.743,10.601-1.237,1.985-1.549,5.042-2.685,6.564-2.227,2.986-19.608,5.581-24.005,7.102-2.802,1.91-3.03,7.2-2.97,10.34-10.899-3.93-20.813,6.876-29.895-4.076l.219-1.541c5.578-2.326.548-7.594-4.838-5.976-2.852-9.196,15.281-13.852,16.733-16.183,2.18-3.498-1.747-6.048-1.747-6.405.002-1.188,10.962-5.401,13.279-8.608,2.19-3.033,2.239-6.857,4.603-10.423,10.339-15.59,31.068-11.558,45.373-23.813,6.773-5.804,17.777-21.365,7.27-28.197-8.987-5.844-31.605-2.371-41.792.952,3.654-6.044,7.237-15.424-3.446-13.895,1.011-4.636,6.268-5.662,4.594-11.575-5.079-.957-7.35,1.69-10.321,5.241-1.644,1.965-12.112,16.847-12.828,18.46-1.314,2.962.198,3.958.144,6.413h0c4.705.535,6.476,5.034,5.756,9.265l-9.797,1.135c1.391-4.794,3.915-4.79,4.04-10.397-7.053-.801-7.604,4.383-8.867,4.69-6.033,1.459-9.277-5.717-16.429,4.008-3.41,4.638-4.926,11.684-5.203,17.411-.08,1.647,1.489,3.448,1.372,4.615-.117,1.173-2.785,2.227-3.144,4.679-.507,3.468,2.236,4.894,2.315,6.869.134,3.319-4.701,8.054-3.381,15.034,1.317,6.967,14.846,6.976,13.837,12.738-6.802,6.628-23.001,7.743-28.173,14.587-1.626,2.151-2.289,5.764-4.039,7.516-2.283,2.288-10.103,3.043-5.449,8.292,1.096,1.235,6.532,2.793,5.393,3.793-4.644.32-3.467,4.552-3.437,8.131l8.034-2.311c.614,2.273-2.326,3.046-2.123,5.006.416,4.02,5.942,5.647-2.8,9.136-10.493,4.187,2.966-7.093.336-9.509-3.599,1.301-6.305-1.945-8.726-2.326-3.067-.481-4.821,1.541-7.999.147-.762-.334-10.564-8.175-10.972-8.747-2.646-3.702-.087-8.353-6.926-12.718-2.55-1.628-13.792-5.612-16.847-6.202-3.656-.707-7.843.431-10.997-.51-2.262-.674-8.092-7.932-11.494-9.358-2.824-1.184-5.072.34-5.293.194-.613-.406-.748-4.42-4.12-4.475-3.188-.052-10.506,5.964-11.963,8.808-8.025,15.656,15.638,18.711,24.422,24.927,1.961,1.388,2.954,4.045,3.267,4.223,1.993,1.138,15.541,1.14,19.326,3.731-2.768,1.34-4.297,7.746-4.617,8.103-.352.393-8.807-2.768-9.989-3.253-5.215-2.142-12.44-6.969-17.609-8.91-4.667-1.753-10.122-1.463-14.602-3.829-6.523-3.446-8.133-14.292-18.081-12.953-5.142.692-19.003,10.984-24.526,13.599-7.864,2.075-17.774-4.1-25.051,1.424-5.81,4.409-.909,9.523-2.2,11.607-1.064,1.717-13.054,6.272-15.998,8.293-7.485,5.14-12.782,13.677-10.091,22.845-4.328.857-6.6,4.598-10.549,6.18-8.624,3.452-15.96,2.131-24.136,3.497-4.075.682-6.371,3.431-10.049,4.349,1.608-11.398-11.653-10.137-18.944-11.62-6.003-1.221-.259-4.222-.541-7.428-.222-2.53-3.554-3.552-3.551-5.827.002-1.345,6.722-10.59,7.803-15.357.476-2.096,1.22-8.066,1.31-10.274.085-2.086-1.804-6.106-.951-7.301,2.083-2.919,12.287,1.682,15.565,2.089,8.023.997,22.096,2.631,29.799,2.524,4.284-.059,8.93-.85,11.453-4.756,2.186-3.384,4.938-19.817,3.828-23.477-.228-.75-8.403-11.43-9.489-12.447-2.848-2.663-5.608-3.354-8.71-5.173-1.503-.881-2.891.197-2.263-2.876,5.412-.33,10.431,4.143,15.283.05,2.813-2.374,1.554-7.714,1.973-8.161.367-.392,8.299.294,10.683-.246,1.146-.26,8.709-4.754,9.414-5.579,2.094-2.45,2.388-7.394,5.766-10.411,3.445-3.077,9-3.902,12.59-8.172,4.369-5.197,1.255-10.388,7.612-14.344,5.011-3.117,16.235-.766,19.309-4.289.617-.707.307-9.894-.065-11.728-.957-4.725-5.393-9.293-5.601-15.301-.259-7.488,5.839-14.306,5.952-4.649.024,2.003-1.08,4.045-1.011,5.79.166,4.184,4.277,17.248,8.419,17.999,4.47.811,12.449-2.408,10.912-8.152,8.648,7.333,13.104,6.612,22.216.952,3.305-2.052,10.011-9.502,12.81-9.115.488.068.81,4.748,8.39,1.495,1.763-.756,10.265-13.506,10.403-14.941.381-3.982-5.606-6.518-6.432-9.324-.844-2.862.045-6.589-.229-9.607,3.582-.474,7.189,3.124,10.68,2.156,5.467-1.517,5.111-14.785,2.532-18.361-1.28-1.774-11.454-2.312-9.738-8.596.774-2.834,24.916-6.226,24.128-16.249-.156-1.983-2.414-4.056-1.806-5.314,1.906-3.947,17.224-3.743,14.26-14.189-1.51-5.32-15.014-5.69-18.212-3.753-2.736,1.656-2.757,7.681.003,9.295,1.755,1.026,4.745-.448,4.599,1.711-5.325.835-12.402,3.747-16.898,6.735-4.61,3.064-10.969,12.472-16.463,11.326-1.123-.235-6.671-3.265-7.404-4.214-.78-1.011-5.995-13.366-6.059-14.595-.299-5.85,10.383-22.95,6.905-30.202-3.226-6.728-16.657-8.401-21.568-2.587-3.911,4.631-.038,7.861.43,12.212,1.632,15.159-8.382,24.532-7.577,36.827.256,3.913,6.228,15.182,9.705,16.688,1.075.465,3.427.029,3.691.288,1.324,1.303-4.445,16.749-4.61,20.291-.3,6.475,5.873,13.826-1.612,19.139-.407.288-8.806,3.145-9.295,3.11-1.972-.139-4.884-7.553-6.284-9.587-2.599-3.774-3.372-4.917-5.917-9.1-1.354-2.224-4.307-3.819-5.108-6.44-.85-2.784.424-8.319-2.343-9.241-4.583-1.528-5.281,4.178-8.494,7.457-1.862,1.9-12.358,9.049-14.377,8.669-3.61-2.306-.069-4.18.374-6.655,1.057-5.912-3.83-6.762-5.02-9.602-.595-1.419.506-2.909.248-3.847-.619-2.249-4.98-5.282-4.331-9.246l20.619-20.049c1.82-8.148,9.657-18.405,11.158-25.831.846-4.182.05-8.006.778-11.959,1.009-5.478,6.14-13.822,7.713-20.034.758-2.994,1.023-11.452,1.363-11.946.363-.526,4.554-1.041,6.23-2.42,2.507-2.062,2.107-5.421,3.434-6.963,1.148-1.336,3.323-1.138,4.574-2.366,1.055-1.036,1.052-3.148,2.066-4.275,1.92-2.135,13.287-5.215,14.617-3.822,1.739,1.823-4.698,5.44,7.52,4.687,10.294-.633,23.233-6.89,33.031-4.395,2.957.753,14.275,8.72,11.145,12.393-1.063,1.247-16.625,4.32-19.487,5.283-2.881.969-14.35,5.4-11.019,9.876,1.547,1.886,4.624.472,6.162,1.399.605.365.627,2.498,2.111,3.025,2.252.8,8.965-.421,9.598.22.592.601-.577,8.152,5.27,9.223,1.384.253,14.143-.838,16.034-1.185,7.116-1.302,5.678-8.823.62-12.139-.075-2.342,12.257-.652,10.218-7.923-.915-3.263-9.672-3.759-10.155-4.32-1.459-1.695,2.936-9.611-.059-12.096,11.097,2.132,12.888-2.44,5.732-10.394.579-2.598,18.208-1.833,3.449-13.924,4.933-2.785,5.524-13.887,3.447-19.096,4.176-.221,11.998,1.668,12.683-4.133.422-3.573-2.49-6.361-.352-10.679,1.886-3.808,12.877-3.753,3.122-12.922-2.103-1.976-7.12-2.001-6.242-4.118.173-.417,5.102-6.376,5.782-6.925,4.545-3.679,19.834-6.741,15.496-15.673-1.905-3.924-5.966-1.148-9.164-1.106-4.192.054-16.01.712-19.005-.657-.89-.407-13.458-12.106-14.412-13.289-.843-1.047-2.67-1.765-.583-2.924,9.407-5.229,16.091,7.239,21.537,8.469,4.576,1.033,21.821,1.196,24.558,3.071,1.903,1.304,2.124,13.658,6.381,15.614,6.531-.936,7.377-8.466,5.694-13.88-1.107-3.562-5.968-5.767-6.94-8.062-1.822-4.3,1.349-8.364-5.718-9.301-1.93-.256-9.803-.375-11.328.025-1.407.368-.92,3.39-3.542,3.469-7.383.221-6.604-1.844-9.384-5.749-.698-.98-2.677-1.048-2.798-1.218-.861-1.204,2.21-3.349,2.092-4.966-.174-2.398-3.989-5.36-5.552-7.143,3.912-3.86,17.945-2.339,18.436-8.173.522-6.197-11.034-9.461-15.669-6.386-3.649,2.421-1.571,6.833-8.826,5.631-13.135-2.175-4.814-15.065-8.807-20.143-2.345-2.983-7.284-.668-10.475-2.194-.704-.337-8.772-11.246-9.423-12.519-3.156-6.169-1.389-11.785-2.573-18.253-1.703-2.462-6.052-.056-8.76-.438-8.87-1.246-2.483-10.289-2.336-15.241.104-3.547-3.495-8.19,1.217-9.228,6.832-1.507,33.344,11.274,34.534,9.908,1.624-7.067-5.859-8.897-7.511-15.013-1.281-4.744.937-12.922-6.274-6.993.289-3.784-2.85-6.433-3.392-9.913-.654-4.192,1.749-10.96.562-13.254-1.655-3.201-9.338-2.938-9.842-3.482-.556-.602,3.353-6.566-.748-7.921-6.362-2.102-3.807,1.941-7.287,4.455-1.687-10.806,8.423-5.922,10.633-10.71.545-1.181,3.111-11.976,3.125-13.191.085-6.863-9.029-5.592-12.131-8.446-1.859-1.711-1.304-4.08-2.278-5.815-2.189-3.904-6.535-2.837-9.716-4.117-2.538-1.022-5.336-3.25-7.677-3.881-3.317-.894-2.302,7.553-2.691,7.937-.158.156-3.86.221-4.426-.164-1.042-.711-1.243-7.357-2.717-8.846-2.229-2.25-7.204.206-9.251-3.998-2.721-5.589,1.789-7.265,1.583-11.885-.49-10.983-24.27-8.746-27.232-14.502-1.379-2.678,2.145-8.236,1.776-12.047-1.143-11.799-14.362-8.018-21.903-11.622-8.086-3.866-18.438-28.495-22.989-1.857-15.635,2.253-28.419-8.001-40.115-16.842-3.116-2.355-7.033-7.934-10.502-9.116-6.023-2.052-13.581,1.78-18.354-3.565-.557-2.471,6.361-5.974,8.081-8.042,1.482-1.782.903-5.162,3.938-5.261,3.983-.13,4.908,4.099,6.946,5.828,4.06,3.442,8.138,3.05,12.735,4.552,3.514,1.148,5.775,5.548,10.187,2.292,4.201-3.101.361-9.576.683-13.805,3.696.201,8.192,2.269,11.892.962,1.384-.489,5.051-7.445,5.177-8.709.281-2.837-17.347-10.62-14.777-17.738,4.261-.079,8.485.37,12.723-.518,3.009-.63,17.825-6.527,20.701-8.114,5.809-3.204,13.195-16.359,15.628-16.779,1.363-.235,4.741,4.022,8.224,4.38,2.496.256,3.723-.983,4.27-.983h23.007c3.698,0,.302-7.746.565-8.096.408-.543,10.006-1.767,11.344-6.637,1.773-6.454-7.479-5.122-3.251-8.983,3.682-3.363,9.763-.539,13.76-2.361,3.03-1.382,4.98-8.068,6.922-9.247,2.637-1.6,6.821.087,9.54-.562.445-.107,3.765-5.199,6.174-6.783,5.546-3.648,13.183-4.529,18.779-8.298-.417,8.553-9.086,38.896-17.842,40.518-3.125.579-6.764-.507-10.097.257-10.514,2.412-20.93,13.109-29.893,17.391-4.355,2.081-14.894,2.867-16.679,8.689-.571,1.862.211,4.809-.746,6.199-1.086,1.577-10.511,1.047-7.01,8.032,4.464,8.906,14.891-5.991,17.92-7.472,1.468-.717,10.606-2.401,11.443-1.787-12.335,23.725,13.677,16.521,26.442,10.977,8.626-3.746,11.493-11.746,21.869-7.505-.023,2.637-2.214,3.386-2.413,6.347-.407,6.058,5.359,11.316,8.737,5.233,3.99,6.971,7.417,2.672,11.246,3.634,1.851.465,10.238,8.248,13.141,10.038,13.054,8.05,13.634,5.066,27.262,4.973,12.795-.087,28.997,2.026,41.395.903,1.529-.138,11.741-1.771,12.168-2.222,1.145-1.211-1.24-8.536-1.16-10.918.113-3.365,2.901-6.276,1.621-9.575-1.516-3.902-11.567-1.787-11.953-6.667-.709-8.981,13.634-21.246,21.245-23.839,11.76-4.007,51.417-5.186,62.767-.499,9.058,3.74,16.183,12.928,26.983,15.688,3.429.877,7.834.651,10.696,1.267-22.492-23.448-47.247-44.706-73.914-63.428-5.554,4.028-10.291,9.94-15.602,13.963-6.562,4.97-16.14,8.082-21.809,12.79-1.137.944-18.09,21.323-18.912,22.657-1.843,2.987-2.761,10.557-5.184,12.156-4.303,2.84-4.748-7.629-.494-10.96,1.029-.807,3.645-1.006,3.867-1.31.977-1.333-4.332-6.096,4.236-11.344,2.033-1.245,6.118-1.721,7.356-3.031,1.447-1.531.657-3.698,1.408-4.939.455-.75,2.468-1.003,3.155-1.989,4.221-6.059,3.532-8.642,2.304-15.694,10.791,17.235,34.291-4.38,27.602-19.686l6.848,3.769C713.437,43.066,616.43,11,511.929,11c-164.644,0-310.695,79.583-401.8,202.375,7.956,2.784,15.541,2.469,23.851,2.353,1.89-.027,3.806-1.234,5.71-1.114,5.942.376,22.449,17.503,28.781,20.843,4.133,2.18,8.793,1.465,10.957,4.587-12.552.598-.347,17.646,4.932,13.93.791-.557.77-2.35,1.483-2.356,1.161-.009,2.846,1.234,4.54,1.233,6.426-.006,8.777-7.703,13.187-8.891,2.413-.65,3.798,2.28,7.384,1.916,2.785-.283,4.206-2.724,6.13-3.231,2.565-.674,5.18.067,7.729-.318,1.997-.301,3.656-1.962,4.869-2.09,2.533-.267,8.595,10.698,17.96,7.701,1.792-.573,2.468-3.034,4.742-3.165,6.319-.365,14.181,4.612,19.613-3.593,1.136-1.716,1.701-5.401,1.925-5.591.597-.504,13.389-2.311,15.384-2.463,11.781-.898,15.639,2.143,26.922-4.166,6.351-3.552,14.029-11.539,19.333-14.126,6.392-3.117,13.6,1.653,15.925-8.289.815-3.484.467-6.99.506-10.505l4.591,2.957c-3.337,4.509-3.599,10.526,3.503,8.125,6.928-2.341,1.411-8.949,2.16-12.615.231-1.132,2.659-1.231,3.558-2.459,6.917-9.459.046-12.772,1.615-19.175,1.064-4.34,9.59-18.406,12.817-21.941,1.507-1.651,2.765-.32,2.776.503.015,1.323-6.074,7.36-7.404,9.343v.003c-1.903,2.839-2.803,4.21-2.167,8.448,2.442,16.25,21.991-4.082,25.527-1.981.266.158,1.49,3.526,3.674,4.999,6.039,4.072,13.003-1.276,19.505-1.682.868,3.418-2.926,2.288-4.06,4.601-1.124,2.294-.596,5.255,1.763,6.403,2.092,1.019,5.616-.461,5.746,1.717-4.047,1.399-10.601,2.226-13.196,5.831-3.798,5.275-2.057,19.708,5.744,19.794,2.522.028,1.748-2.841,3.58-3.483,2.68-.939,5.317,1.165,7.855,1.009,2.731-.17,6.145-3.59,9.83-2.291,3.106,12.699-8.36,9.481-13.297,13.828-9.018,7.941,13.282,17.493,19.048,17.464-1.962,2.147-1.727,6.26-2.908,8.063-1.74,2.656-6.869,1.655-8.712,3.97-2.329,2.924.026,9.065-1.878,13.167-1.122,2.419-3.966,2.976-5.526,4.856-1.441,1.737-3.686,6.403-4.781,7.065-3.04,1.838-13.422,1.153-18.749,2.837-6.695,2.117-18.383,6.751-24.961,9.616-3.79,1.651-7.262,5.342-10.906,6.393-3.365.971-9.882.245-11.379,1.284-2.034,1.411-.655,6.733-1.122,9.295-.456,2.497-3.036,4.805-3.975,7.582-.807,2.386-1.517,10.977-1.883,11.424-.373.455-8.949,1.835-11.04,3.943-1.903,1.92-3.411,9.73-4.886,10.717-1.914,1.279-9.93,1.471-12.695,4.592-1.811,2.045-1.866,10.791-3.668,11.957-.905.585-2.993-.069-4.375.804-1.288.814-.466,3.269-2.281,2.883-.425-2.366-1.209-5.57-4.026-5.844-3.422.014-7.823,9.12-8.858,12.002-2.543,7.082-3.363,11.17,5.956,7.751-.05,2.922-2.294,4.253-2.325,7.492-.036,3.755,3.378,9.003,2.2,12.58-1.202,3.651-16.002,5.377-14.849,19.877.259,3.256,2.949,7.654,2.425,10.282-.333,1.673-9.747.775-1.863,8.891,5.456,5.618,6.979,3.334,12.57,3.54,2.116.078,4.517,1.631,6.799,1.11,1.108-.253,5.788-10.563,12.305-7.007l-2.229,6.399c-9.293-5.039-11.849,8.366-13.322,8.664-1.333.271-2.788-2.208-4.551-2.295-7.342-.362-16.264,22.17-2.391,22.035,1.79-.017,3.623-1.141,5.702-1.107,11.688.187,9.668,12.229-.767,10.071-1.096-.227-13.805-5.296-14.361-5.837-1.035-1.007-2.081-5.094-3.741-7.235-2.522-3.253-9.874-7.772-10.88-9.891-.283-.596-2.755-9.234-2.772-9.741-.105-3.189,3.198-8.15-.756-11.06-5.34-1.607-11.626,13.854-12.617,13.869-7.12-9.889-15.824-22.369-27.927-26.298-4.482-1.456-21.255-4.944-23.839-.323-.882,1.579-.289,6.75-2.288,6.92-1.153.098-10.004-5.13-12.736-1.199-2.977,4.284,2.055,11.255,1.611,14.272-.319,2.172-4.478,8.936-5.787,11.636-2.982,6.15-1.125,4.096-5.541,9.433-4.579,5.533-4.682,20.197-4.586,27.288-6.974-3.524-30.347,8.603-32.774,13.908-3.714,8.117,5.709,18.04,14.628,17.089,4.081-.435,16.911-5.401,18.528-5.261,3.664.318,12.853,7.383,16.825,8.463,11.312,3.077,23.5-4.887,27.067-15.644,4.361,3.2,13.681,5.466,17.95,1.821,1.506-1.285,3.334-8.232,5.627-6.48,2.241,1.712,5.52,19.694,4.382,23.509-.826,2.773-8.478,8.898-9.529,11.25-1,2.239-.339,6.698-.584,6.945-.421.425-8.821-1.115-10.942,3.46-1.295,2.794.073,6.023-.742,8.52-.704,2.157-4.464,1.965-4.48,4.77-.006,1.086,5.896,9.952,6.947,10.468,5.44,2.672,17.153-3.875,12.076,7.519-2.486,5.579-10.143,9.704-12.263,16.076-15.637-3.29-7.597,12.888-9.017,22.149-4.253-.854-10.312-2.968-13.789.618-1.188,4.041,9.418,9.345,10.317,13.89,1.48,7.478-3.785,13.402-10.754,9.668-2.414-1.294-22.608-16.222-23.753-17.773-4.218-5.714-7.944-27.421-14.937-31.293-1.999-1.106-5.081-.347-7.756-1.457-5.216-2.165-14.751-13.901-22.116-16.04-3.168-.92-4.843.773-7.25.466-2.695-.342-17.311-7.996-16.792-1.693.086,1.04,1.391,2.815,2.224,3.59,5.68,5.283,24.028,10.891,32.051,16.375,5.3,3.623,7.013,6.063,10.439,11.497-6.945,1.059-7.372-9.741-14.851-7.453-4.668,5.303,7.838,10.384,4.511,13.811-.336.346-5.505.726-8.897,3.091-2.624,1.831-4.522,5.546-7.202,7.333.143-4.453-4.134-9.254-7.655-11.406-1.91-1.166-6.209-1.789-7.044-2.765-.643-.751-.997-3.916-2.56-6.108-3.753-5.263-8.69-5.155-11.566-8.04-2.406-2.414-2.669-6.843-6.262-9.912-5.004-4.276-10.539-3.602-16.697-3.457l-.515-8.18c-1.395-2.09-4.132.124-5.285-.529-.349-.198-5.431-5.476-5.521-5.869-.247-1.093,1.137-3.505.971-5.587-.384-4.791-4.184-7.423-7.477-3.029l-2.929-8.053c-4.106-1.173-3.008,1.987-5.685,3.441.444-12.806-5.265-3.797-7.491-3.806-.834-.003-2.899-2.574-4.87-2.975-2.749-.559-5.02,1.112-7.152.41-3.392-1.116-20.146-19.746-20.694-23.234-.497-3.163-.71-7.097-.731-11.44-.025,2.057-.039,4.117-.039,6.18,0,233.919,160.637,430.311,377.613,484.903l17.904-3.245c3.466-1.008,8.351-4.132,10.015-7.397ZM584.344,909.593c-.082,4.305,1.245,8.792-2.87,11.556-3.628-4.866-5.531-12.23,2.87-11.556ZM630.07,494.017c.534-1.238,1.188-2.832,2.583-1.436.607.608,3.578,13.404,4.882,16.526,2.779,6.657,6.348,13.638,10.646,19.398l14.393,13.875-9.172,1.141c.116-8.095-8.244-12.373-12.661-17.951-5.234-6.609-14.173-23.438-10.671-31.554ZM616.559,410.35c-1.568,4.93,1.695,8.617-5.745,9.251-.634-5.049-.035-8.944,5.745-9.251ZM535.998,536.098c.196-1.349,1.606-3.728,2.901-3.821.557-.04,10.146,3.192,10.603,3.513h.001c.838.587,2.666,4.273,3.788,5.432-1.029.857-10.343-6.221-11.548-1.522-1.942,7.579,5.342,4.95,5.866,6.88.345,1.273.359,10.383-2.355,7.395-.196-.215-.567-3.643-1.9-5.512-2.307-3.235-8.041-7.637-7.355-12.365ZM484.449,748.178c.689-2.268,2.638-2.076,4.424-1.904h-.001c-10.801,12.947,7.108,9.036,8.049,10.424,2.186,3.222-4.404,5.651-4.637,6.596-2.025,8.229,4.74,8.721,7.894,13.864,2.73,4.454,1.636,7.828,3.066,10.812.934,1.946,4.785,2.629,5.752,4.632.85,1.76.238,4.208,1.158,5.784,1.058,1.813,8.278,3.701,9.697,6.49-5.966,16.694-16.732,14.62-30.975,9.714,4.966-6.319-1.541-5.43-2.327-7.737-1.725-5.064,3.411-3.916,6.369-6.133,6.626-4.967.18-7.531-.394-11.249-.362-2.349,1.565-5.266,1.032-7.692-.333-1.514-6.261-2.376-6.811-3.254-1.335-2.13,1.464-7.069,1.066-9.602-.219-1.397-3.933.415-4.732-3.556-.17-.845,1.119-16.365,1.369-17.189ZM202.424,238.315c-3.814,1.477-14.743,5.889-12.632-.567,3.887,3.863,18.527-5.469,19.541-4.632h.001c2.134,1.764-6.019,4.854-6.909,5.199ZM233.511,229.037c-1.273-3.203,7.703-1.203,9.189-1.706-2.512,5.346-6.283,9.015-9.189,1.706ZM121.337,618.841c-3.533-2.794-8.887-3.486-10.925-8.094,2.096-.015,6.332-.167,7.752,1.467h0c.731.84.507,3.445,1.943,4.376l13.306,9.198c-7.731,1.582-7.788-3.556-12.076-6.946ZM190.795,661.541h0c-.282.368-2.06.38-2.666,1.337-1.745,2.759-.972,6.576-6.384,8.088,1.006-3.37-4.626-5.978-4.713-6.527-.448-2.828,3.442-4.645,1.39-9.211-1.008-2.242-2.946-2.542-3.245-3.125-1.263-2.458-.79-6.387-3.798-8.923,5.246-1.012,14.993-2.623,19.56.563,2.68,1.87-3.185,3.748-3.37,6.874-.16,2.685,3.845,10.118,3.226,10.924ZM256.445,465.424c-4.021-5.956,9.51-8.081,13.856-9.904l-1.812,8.009-7.366,8.196c-.012-3.097-3.397-4.404-4.678-6.302ZM347.37,476.367c-2.723-1.004-2.654-4.496-4.642-6.319-5.99-5.492-17.32,9.463-4.545,8.647-1.702,1.743-.772,7.598-1.211,8.047-.46.471-5.432-.862-6.642,3.193-1.247,4.184,2.243,9.307.793,13.497-1.112,3.213-12.424,1.781-6.757,13.473-11.133-3.368-11.639,7.454-12.629,15.661-1.224,10.146,4.034,16.94-11.516,15.614,1.447-5.913,5.992-9.611,5.666-16.708-.257-5.607-5.74-12.759-10.141-6.893-2.467,3.288-13.321,21.868-14.523,22.441-1.754.836-3.737-4.658-3.809-5.411-.155-1.61,7.067-9.775,1.371-11.82-7.094-2.546-3.9,11.445-9.618,13.762,1.084-4.318-3.714-6.807-3.448-10.912.227-3.502,3.981-6.385,4.381-8.473.347-1.809-1.314-4.11-.858-4.787.267-.395,3.008-.775,4.393-3.17,4.111-7.111-1.695-13.903-4.479-20.139,6.508-.349,8.668,16.07,10.486,17.216,2.523,1.591,5.42-2.038,7.333-2.121,4.531-.197,7.172,6.229,15.447,1.587,1.93-1.082,9.924-7.999,10.926-9.839,2.046-3.753,1.099-7.302,2.422-10.303,1.028-2.332,5.165-3.767,6.069-7.809,1.709-7.634-3.519-7.029-4.354-11.363-.762-3.952.982-6.955,1.144-10.391.089-1.9-1.783-4.849-1.013-6.181.139-.241,2.848-1.237,3.941-2.42,4.799-5.199,4.004-7.193,13.16-5.873h.003c.535,3.902-4.828,2.579-6.33,5.78-.956,2.039-.254,5.283-.577,5.799-.154.246-4.656-2.5-5.735-.584,1.761,4.665,8.109,2.473,9.257,3.373,1.295,1.015.567,4.044,1.723,4.244,3.35.58,7.544-3.433,9.554-2.246.562.332,5.462,9.595,4.757,11.431ZM328.981,427.709c.674-8.635,9.05-6.348,14.943-9.255.007,4.71-5.897,4.126-8.875,5.53-2.342,1.104-3.307,3.935-6.067,3.725ZM348.368,378.871c-.204.349-2.405.922-3.31,1.861-4.72,4.898-5.203,7.494-4.587,14.546-7.265-4.942-8.932,6.681-10.904,6.849-.551.047-3.414-2.776-6.864-2.254-2.856.433-4.588,4.957-8.677,3.52,1.871-10.868-5.104-16.349-4.671-27.259.376-9.491,4.003-13.704,13.874-12.132-4.315,19.075,6.528,17.835,8.059,1.169,2.385,1.319.434,5.636,2.851,8.115,3.454,3.541,5.367-.323,5.299-4.064-.139-7.724-3.547-4.626,5.631-9.848l3.299,19.497h0ZM364.403,452.614c-.016,5.945-.433,8.923-6.674,7.533,2.594-8.352-4.066-19.989,6.9-23.16-1.899,5.602-.213,10.705-.227,15.627ZM370.302,359.796c-2.358,1.766-8.149,11.762-10.821,11.164-1.322-.295-4.884-9.83-6.524-11.992-1.3-1.715-11.238-8.304-3.681-9.847,1.808-.369,4.149,2.957,7.629,1.981,1.613-.452,3.209-3.285,3.701-3.294,1.573-.031,3.409,5.421,4.383,6.581h0c1.134,1.35,5.786,2.765,5.312,5.407ZM400.301,465.939l-18.342-1.221c1.412-4.859-6.511-17.483,1.722-18.498,1.128-.139,6.938.948,7.256,1.344h0c.573.713-.083,4.845,1.244,7.148,1.871,3.246,10.65,2.065,8.121,11.227ZM455.69,788.748c1.545-4.64,6.08-3.401,7.685-4.448.763-.498.893-15.822,11.692-6.16.737,3.241-6.362,4.789-6.719,5.357h0c-2.846,4.539,1.241,6.247,4.806,6.804,4.278.668-2.864,5.424-3.19,5.845-1.206,1.554-1.538,3.87-2.973,5.116-3.442,2.989-14.79,3.422-19.532,4.066,2.023-5.136,11.597-7.411,10.394-13.184-.207-.994-3.285-.027-2.164-3.395ZM449.622,664.154h.001c2.98,3.446-4.498,14.513-7.59,15.83-10.686,4.551-14.774-1.651-23.328-6.137,2.667-4.422,4.664-5.372,2.301-10.979,2.734-.568,5.256,1.811,7.619,1.943,3.759.211,18.985-2.985,20.997-.658ZM404.895,467.093h-.001.001s4.621-18.526,4.621-18.526c3.279-.719,2.304,3.203,4.055,5.745,2.131,3.092,5.993,7.025,10.143,5.696,5.519-1.768-4.254-7.753-3.76-10.713.514-3.076,7.853-3.912,9.682-6.516-.596,7.795,17.29,15.739,11.442,23.081-3.52,4.419-12.301.077-17.262.594-2.219.232-3.447,2.774-5.66,2.891-2.89.154-8.997-3.976-13.261-2.251h0Z" style="fill: #021e43;"/>
  <path d="M236.251,361.639c5.072-.847,4.095-16.778,2.458-20.834-1.401-3.474-7.635-8.057-11.378-6.784h0c-5.863,1.994,2.448,11.82,3.327,14.89.703,2.456.599,13.563,5.594,12.728Z" style="fill: #02e743;"/>
  <path d="M882.279,716.152l.006-6.961c-3.63-.634-7.388,1.752-10.864,1.188-2.762-.448-4.246-3.9-7.237-4.477-3.015-.582-5.107,1.038-7.521.746-2.782-.337-7.478-3.865-11.186-3.256h.001c4.233-4.262.027-6.852.233-9.644.287-3.892,5.986-8.33,2.618-15.809-.617-1.371-10.406-10.674-11.943-11.07-3.173-.817-3.486,2.87-4.341,2.967-1.376.156-3.011-1.476-4.471-.18-1.773,1.574-1.409,4.636-2.762,6.565-8.563,12.209-6.972,12.833-10.413,26.479-.686,2.718-2.895,5.332-3.243,7.361-.349,2.028,4.819,20.396,5.747,20.95,1.407.837,4.902-.312,7.144.382,1.302.403,1.764,2.685,3.319,3.687,9.406,6.069,18.832,3.825,29.437,5.574,4.255,8.086,7.12,27.553,19.791,23.615,1.865-.58,3.589-2.725,5.693-3.528,12.433-4.743,25.35-8.338,24.756-24.87-7.499-6.394-13.634-20.934-24.763-19.719Z" style="fill: #02e743;"/>
  <path d="M302.512,326.933h0c-1.147,1.061-6.945-4.797-8.032-.513-.444,1.751,3.257,8.388,4.592,9.212,10.729,6.625,13.131-18.463,10.042-25.18-3.833-8.335-6.26,1.636-6.609,6.056l-5.18-8.102c-5.025.896-6.653,9.663-4.13,13.202.466.655,12.5,2.381,9.317,5.326Z" style="fill: #02e743;"/>
  <path d="M261.124,354.133c10.662,4.977,5.631-11.259,5.625-16.19-.009-8.9.588-9.428-.85-18.832-.414-2.705,1.395-5.447-.266-8.318h0c-7.813-1.316-13.669,12.712-13.823,19.041-.106,4.351,5.605,22.566,9.314,24.299Z" style="fill: #02e743;"/>
  <path d="M671.798,657.626c-1.378-1.679-3.119-11.186-8.926-6.071h0c-1.685,1.484-1.403,4.433-.611,6.341.284.685,8.695,10.499,9.593,11.266,4.806,4.103,11.268-2.071,8.589-6.327-.971-1.542-7.063-3.281-8.645-5.208Z" style="fill: #02e743;"/>
  <path d="M208.522,367.126c3.587,3.081,7.817.691,7.656-3.707-.025-.671-4.211-11.751-4.687-12.583-6.754-11.796-10.132,10.137-2.968,16.29Z" style="fill: #02e743;"/>
  <path d="M66.377,486.613c3.476-.874,8.198.096,11.098-.161,4.904-.435,5.393-3.867,12.631.516,9.062,5.488.292,7.622-4.431,11.402-1.435,1.148-1.925,3.953-3.643,4.519-4.176,1.375-17.992-9.741-18.774,3.099-.343,5.645,14.518,22.153,18.198,27.916,1.356,2.123,4.008,10.419,5.613,10.824,6.809,1.717,9.601-3.881,8.422-9.866-.582-2.958-3.075-2.669-3.974-4.141-1.194-1.957-1.436-4.49-2.719-6.528-1.454-2.309-10.24-12.026-8.298-14.228l6.906-.003c-4.498,6.073,6.696,14.961,10.996,11.678,1.191-.909,6.523-12.776,7.141-14.847.487-1.633,2.634-11.259,2.659-12.533.083-4.268-4.07-6.434-.641-10.973,1.542-2.041,4.542.253,6.881.138,5.341-.261,9.95-6.345,10.674-11.414,1.418-9.91-5.523-15.38-10.543-22.421-.977-1.369-2.447-6.122-3.242-6.57v.002c-.974-.549-5.662-.598-6.509-.08-2.912,1.78-.983,24.526.978,28.783-1.944-.183-1.405-2.651-3.474-4.014-2.814-1.855-9.223-2.208-12.617-4.104-.879-4.145,6.641-.731,2.931-5.835-1.448-1.993-14.79-1.246-17.953-.58-7.008,1.476-8.67,5.255-7.994,12.228,10.285-1.629,19.727-.866,29.905,1.168l-10.727,5.974c-3.882,2.899-22.02.045-22.692,2.88-.602,2.536.454,6.403,3.196,7.172Z" style="fill: #02e743;"/>
  <path d="M123.048,413.23c.014.392-5.192,4.451.851,6.178,3.733,1.067,12.781-3.969,16.936-5.654,5.188-2.103,5.041-1.024,10.405-4.582,3.217-2.134,7.776-1.555,2.314-5.789-1.558-1.208-3.143-2.23-5.179-2.326-.849-1.095,7.665-3.433,3.15-7.805v.002c-6.446-6.242-30.2,5.627-31.874,14.305-1.038,5.379,3.354,4.455,3.398,5.671ZM136.411,403.451c10.443-.452-6.924,9.46-8.745,8.035,1.773-4.447,3.397-7.803,8.745-8.035Z" style="fill: #02e743;"/>
  <polygon points="799.461 101.074 799.46 101.075 799.461 101.075 799.461 101.074" style="fill: #02e743;"/>
  <path d="M799.46,101.075l-5.796-3.19c1.75,1.195,3.491,2.402,5.224,3.619.192-.139.377-.294.572-.429Z" style="fill: #02e743;"/>
  <path d="M759.214,113.802c1.228,7.052,1.917,9.635-2.304,15.694-.687.986-2.7,1.238-3.155,1.989-.751,1.241.039,3.408-1.408,4.939-1.238,1.31-5.324,1.786-7.356,3.031-8.568,5.248-3.26,10.01-4.236,11.344-.222.304-2.838.503-3.867,1.31-4.254,3.331-3.809,13.801.494,10.96,2.423-1.6,3.341-9.17,5.184-12.156.822-1.334,17.776-21.713,18.912-22.657,5.669-4.708,15.247-7.82,21.809-12.79,5.311-4.022,10.048-9.935,15.602-13.963-1.733-1.217-3.475-2.423-5.224-3.619l-6.848-3.769c6.689,15.306-16.811,36.922-27.602,19.686Z" style="fill: #02e743;"/>
  <path d="M511.929,1011c-42.224,0-83.221-5.243-122.387-15.097l-3.041.551c18.055,2.331,35.804,7.472,53.793,10.126,165.205,24.372,332.021-36.176,443.738-159.526,7.098-7.837,23.314-25.983,27.791-34.566.423-.81.699-1.672.912-2.517-91.172,122.029-236.763,201.029-400.806,201.029Z" style="fill: #02e743;"/>
  <path d="M872.803,164.931c-2.862-.615-7.267-.39-10.696-1.267-10.8-2.759-17.925-11.947-26.983-15.688-11.35-4.686-51.007-3.508-62.767.499-7.612,2.593-21.954,14.858-21.245,23.839.385,4.88,10.437,2.764,11.953,6.667,1.28,3.298-1.508,6.21-1.621,9.575-.08,2.382,2.305,9.708,1.16,10.918-.426.451-10.638,2.084-12.168,2.222-12.397,1.123-28.6-.99-41.395-.903-13.628.092-14.208,3.077-27.262-4.973-2.903-1.79-11.289-9.573-13.141-10.038-3.829-.961-7.256,3.337-11.246-3.634-3.378,6.083-9.144.825-8.737-5.233.199-2.961,2.39-3.709,2.413-6.347-10.376-4.24-13.243,3.759-21.869,7.505-12.765,5.544-38.777,12.748-26.442-10.977-.837-.614-9.975,1.069-11.443,1.787-3.029,1.481-13.456,16.378-17.92,7.472-3.501-6.985,5.923-6.454,7.01-8.032.957-1.39.175-4.337.746-6.199,1.784-5.822,12.324-6.608,16.679-8.689,8.963-4.282,19.379-14.979,29.893-17.391,3.333-.765,6.972.322,10.097-.257,8.757-1.622,17.425-31.966,17.842-40.518-5.596,3.77-13.233,4.65-18.779,8.298-2.409,1.585-5.729,6.677-6.174,6.783-2.718.649-6.902-1.038-9.54.562-1.941,1.179-3.892,7.865-6.922,9.247-3.996,1.821-10.078-1.002-13.76,2.361-4.228,3.861,5.025,2.529,3.251,8.983-1.338,4.87-10.936,6.094-11.344,6.637-.262.35,3.133,8.096-.565,8.096h-23.007c-.547,0-1.774,1.239-4.27.983-3.483-.358-6.86-4.615-8.224-4.38-2.433.42-9.82,13.575-15.628,16.779-2.876,1.587-17.692,7.484-20.701,8.114-4.238.888-8.462.439-12.723.518-2.57,7.118,15.058,14.9,14.777,17.738-.126,1.265-3.794,8.22-5.177,8.709-3.7,1.307-8.196-.762-11.892-.962-.322,4.229,3.519,10.704-.683,13.805-4.413,3.256-6.674-1.144-10.187-2.292-4.596-1.502-8.675-1.11-12.735-4.552-2.039-1.729-2.963-5.958-6.946-5.828-3.035.099-2.456,3.479-3.938,5.261-1.72,2.068-8.638,5.571-8.081,8.042,4.772,5.345,12.331,1.513,18.354,3.565,3.47,1.182,7.386,6.761,10.502,9.116,11.696,8.841,24.48,19.095,40.115,16.842,4.551-26.638,14.903-2.009,22.989,1.857,7.541,3.605,20.76-.176,21.903,11.622.369,3.811-3.155,9.368-1.776,12.047,2.962,5.755,26.742,3.519,27.232,14.502.206,4.62-4.304,6.296-1.583,11.885,2.047,4.204,7.021,1.748,9.251,3.998,1.474,1.488,1.675,8.134,2.717,8.846.566.385,4.268.32,4.426.164.388-.383-.626-8.83,2.691-7.937,2.341.63,5.139,2.859,7.677,3.881,3.181,1.28,7.527.213,9.716,4.117.974,1.735.418,4.104,2.278,5.815,3.102,2.854,12.216,1.583,12.131,8.446-.014,1.215-2.58,12.01-3.125,13.191-2.21,4.788-12.321-.095-10.633,10.71,3.48-2.513.925-6.557,7.287-4.455,4.101,1.355.193,7.32.748,7.921.504.544,8.187.281,9.842,3.482,1.187,2.294-1.216,9.062-.562,13.254.542,3.48,3.681,6.128,3.392,9.913,7.211-5.93,4.993,2.249,6.274,6.993,1.652,6.116,9.135,7.946,7.511,15.013-1.19,1.366-27.703-11.414-34.534-9.908-4.712,1.038-1.112,5.682-1.217,9.228-.147,4.952-6.534,13.994,2.336,15.241,2.708.381,7.057-2.024,8.76.438,1.184,6.468-.583,12.084,2.573,18.253.651,1.273,8.719,12.182,9.423,12.519,3.192,1.525,8.13-.789,10.475,2.194,3.992,5.078-4.329,17.968,8.807,20.143,7.255,1.201,5.177-3.21,8.826-5.631,4.635-3.075,16.191.189,15.669,6.386-.491,5.834-14.523,4.313-18.436,8.173,1.563,1.784,5.378,4.745,5.552,7.143.118,1.617-2.953,3.762-2.092,4.966.121.17,2.1.238,2.798,1.218,2.78,3.905,2.001,5.971,9.384,5.749,2.622-.079,2.135-3.101,3.542-3.469,1.525-.4,9.398-.281,11.328-.025,7.067.937,3.896,5.001,5.718,9.301.973,2.295,5.833,4.5,6.94,8.062,1.683,5.414.837,12.944-5.694,13.88-4.257-1.956-4.477-14.31-6.381-15.614-2.737-1.875-19.982-2.038-24.558-3.071-5.446-1.23-12.13-13.697-21.537-8.469-2.087,1.159-.259,1.878.583,2.924.953,1.183,13.522,12.882,14.412,13.289,2.995,1.369,14.812.711,19.005.657,3.197-.042,7.258-2.818,9.164,1.106,4.338,8.932-10.951,11.995-15.496,15.673-.68.549-5.609,6.508-5.782,6.925-.877,2.118,4.139,2.142,6.242,4.118,9.755,9.17-1.236,9.114-3.122,12.922-2.138,4.317.774,7.105.352,10.679-.686,5.8-8.508,3.911-12.683,4.133,2.077,5.209,1.486,16.311-3.447,19.096,14.759,12.091-2.87,11.325-3.449,13.924,7.157,7.953,5.365,12.526-5.732,10.394,2.995,2.485-1.399,10.401.059,12.096.483.562,9.239,1.058,10.155,4.32,2.039,7.271-10.293,5.581-10.218,7.923,5.058,3.316,6.495,10.837-.62,12.139-1.891.346-14.65,1.438-16.034,1.185-5.847-1.071-4.677-8.622-5.27-9.223-.633-.642-7.346.579-9.598-.22-1.483-.527-1.506-2.66-2.111-3.025-1.539-.928-4.616.487-6.162-1.399-3.331-4.476,8.138-8.907,11.019-9.876,2.863-.962,18.424-4.035,19.487-5.283,3.13-3.674-8.188-11.64-11.145-12.393-9.798-2.495-22.737,3.762-33.031,4.395-12.218.752-5.781-2.865-7.52-4.687-1.329-1.393-12.697,1.687-14.617,3.822-1.015,1.128-1.012,3.239-2.066,4.275-1.25,1.228-3.426,1.03-4.574,2.366-1.326,1.542-.927,4.901-3.434,6.963-1.676,1.379-5.867,1.894-6.23,2.42-.34.494-.605,8.952-1.363,11.946-1.573,6.211-6.705,14.556-7.713,20.034-.728,3.952.068,7.777-.778,11.959-1.502,7.426-9.338,17.683-11.158,25.831l-20.619,20.049c-.65,3.964,3.712,6.997,4.331,9.246.258.938-.843,2.428-.248,3.847,1.19,2.84,6.077,3.69,5.02,9.602-.443,2.475-3.984,4.349-.374,6.655,2.018.379,12.514-6.769,14.377-8.669,3.213-3.279,3.911-8.985,8.494-7.457,2.768.922,1.493,6.457,2.343,9.241.8,2.621,3.754,4.216,5.108,6.44,2.545,4.183,3.318,5.326,5.917,9.1,1.4,2.034,4.312,9.447,6.284,9.587.489.035,8.888-2.822,9.295-3.11,7.486-5.313,1.312-12.664,1.612-19.139.165-3.542,5.935-18.988,4.61-20.291-.264-.259-2.616.177-3.691-.288-3.477-1.506-9.448-12.775-9.705-16.688-.806-12.295,9.209-21.669,7.577-36.827-.468-4.351-4.342-7.581-.43-12.212,4.911-5.814,18.342-4.141,21.568,2.587,3.478,7.252-7.205,24.352-6.905,30.202.064,1.229,5.279,13.584,6.059,14.595.733.949,6.28,3.979,7.404,4.214,5.494,1.146,11.852-8.263,16.463-11.326,4.496-2.988,11.573-5.9,16.898-6.735.146-2.159-2.844-.685-4.599-1.711-2.76-1.613-2.739-7.638-.003-9.295,3.198-1.937,16.702-1.567,18.212,3.753,2.964,10.446-12.353,10.242-14.26,14.189-.608,1.258,1.65,3.33,1.806,5.314.787,10.024-23.355,13.415-24.128,16.249-1.716,6.283,8.458,6.821,9.738,8.596,2.579,3.576,2.936,16.844-2.532,18.361-3.49.969-7.097-2.629-10.68-2.156.274,3.019-.615,6.745.229,9.607.826,2.806,6.813,5.342,6.432,9.324-.137,1.435-8.64,14.185-10.403,14.941-7.58,3.252-7.902-1.428-8.39-1.495-2.799-.386-9.506,7.063-12.81,9.115-9.112,5.66-13.568,6.381-22.216-.952,1.536,5.744-6.442,8.963-10.912,8.152-4.142-.751-8.253-13.815-8.419-17.999-.07-1.746,1.034-3.787,1.011-5.79-.113-9.656-6.211-2.838-5.952,4.649.208,6.009,4.643,10.576,5.601,15.301.371,1.834.682,11.021.065,11.728-3.074,3.523-14.298,1.172-19.309,4.289-6.357,3.955-3.243,9.147-7.612,14.344-3.59,4.27-9.145,5.095-12.59,8.172-3.377,3.017-3.672,7.961-5.766,10.411-.704.825-8.268,5.319-9.414,5.579-2.383.54-10.316-.146-10.683.246-.419.447.839,5.787-1.973,8.161-4.851,4.093-9.871-.38-15.283-.05-.627,3.073.761,1.995,2.263,2.876,3.103,1.819,5.862,2.51,8.71,5.173,1.086,1.017,9.262,11.696,9.489,12.447,1.11,3.659-1.642,20.093-3.828,23.477-2.523,3.906-7.17,4.697-11.453,4.756-7.703.108-21.776-1.526-29.799-2.524-3.278-.407-13.482-5.008-15.565-2.089-.853,1.195,1.036,5.215.951,7.301-.09,2.208-.834,8.177-1.31,10.274-1.081,4.766-7.801,14.012-7.803,15.357-.003,2.276,3.328,3.297,3.551,5.827.282,3.206-5.462,6.207.541,7.428,7.291,1.483,20.552.222,18.944,11.62,3.678-.918,5.974-3.667,10.049-4.349,8.175-1.366,15.511-.045,24.136-3.497,3.949-1.582,6.222-5.323,10.549-6.18-2.691-9.169,2.607-17.705,10.091-22.845,2.944-2.021,14.934-6.576,15.998-8.293,1.29-2.084-3.61-7.199,2.2-11.607,7.277-5.524,17.187.651,25.051-1.424,5.523-2.615,19.384-12.907,24.526-13.599,9.948-1.339,11.558,9.507,18.081,12.953,4.48,2.367,9.935,2.077,14.602,3.829,5.169,1.941,12.394,6.768,17.609,8.91,1.182.485,9.637,3.646,9.989,3.253.32-.357,1.849-6.763,4.617-8.103-3.785-2.591-17.334-2.593-19.326-3.731-.313-.178-1.306-2.835-3.267-4.223-8.783-6.216-32.446-9.271-24.422-24.927,1.457-2.843,8.775-8.86,11.963-8.808,3.371.055,3.507,4.069,4.12,4.475.221.147,2.469-1.378,5.293-.194,3.402,1.426,9.232,8.684,11.494,9.358,3.154.941,7.341-.197,10.997.51,3.055.59,14.297,4.575,16.847,6.202,6.839,4.366,4.28,9.016,6.926,12.718.408.572,10.21,8.413,10.972,8.747,3.179,1.394,4.932-.627,7.999-.147,2.421.38,5.127,3.626,8.726,2.326,2.63,2.416-10.829,13.696-.336,9.509,8.742-3.489,3.216-5.116,2.8-9.136-.203-1.96,2.737-2.733,2.123-5.006l-8.034,2.311c-.03-3.579-1.207-7.812,3.437-8.131,1.14-.999-4.297-2.557-5.393-3.793-4.655-5.249,3.166-6.004,5.449-8.292,1.75-1.753,2.413-5.365,4.039-7.516,5.172-6.844,21.371-7.959,28.173-14.587,1.009-5.762-12.52-5.771-13.837-12.738-1.319-6.979,3.516-11.715,3.381-15.034-.08-1.974-2.823-3.401-2.315-6.869.359-2.452,3.027-3.507,3.144-4.679.117-1.166-1.452-2.967-1.372-4.615.277-5.727,1.793-12.773,5.203-17.411,7.151-9.725,10.396-2.549,16.429-4.008,1.264-.307,1.814-5.491,8.867-4.69,0-.001,0-.002,0-.003h0c.054-2.456-1.458-3.451-.144-6.413.715-1.613,11.184-16.495,12.828-18.46,2.97-3.551,5.242-6.198,10.321-5.241,1.674,5.913-3.583,6.939-4.594,11.575,10.683-1.529,7.1,7.85,3.446,13.895,10.188-3.323,32.805-6.796,41.792-.952,10.506,6.832-.497,22.393-7.27,28.197-14.305,12.255-35.034,8.223-45.373,23.813-2.365,3.566-2.413,7.39-4.603,10.423-2.317,3.207-13.277,7.42-13.279,8.608,0,.358,3.927,2.907,1.747,6.405-1.452,2.331-19.585,6.986-16.733,16.183,5.386-1.618,10.416,3.65,4.838,5.976l-.219,1.541c9.083,10.952,18.996.147,29.895,4.076-.059-3.141.168-8.431,2.97-10.34,4.397-1.521,21.778-4.116,24.005-7.102,1.136-1.522,1.447-4.579,2.685-6.564,1.36-2.182,11.633-10.294,13.743-10.601,6.503-.944,3.625,6.093,3.906,6.594.182.326,2.23.662,3.146,2.074,4.978,7.672,10.096,32.219,7.333,40.682-4.112,12.594-18.797,12.551-28.225,17.912-7.26,4.129-11.954,12.511-18.82,15.799-3.308,1.584-32.613,12.116-35.744,12.658-13.893,2.408-29.791-1.08-41.708,8.97,6.676,2.499,2.339,15.62-1.889,18.948-5.931,4.669-10.927,1.253-17.039,1.266-7.132.016-18.201,2.344-24.191,1.185-3.243-.627-3.711-3.96-6.95-4.583-8.484-1.632-18.061,1.53-26.46,1.188-3.607-.148-20.197-2.665-21.103-5.47-2.424-7.505,6.986-9.031,6.735-13.749-.159-3.002-4.413-3.172-5.65-5.88l3.365-6.219c-1.698-1.31-20.957,4.978-24.854,5.657-16.587,2.889-35.812,2.667-52.53,6.18-8.905,1.872-22.929,10.857-30.2,11.356-4.206.289-18.516-1.474-22.677-2.656-2.546-.724-9.914-5.621-10.57-5.469-1.12.258-3.786,5.788-5.381,7.388-9.239,9.268-28.043,10.352-33.259,16.372-1.956,2.257.153,4.016-1.224,6.716-1.665,3.266-6.55,6.39-10.015,7.397l-17.904,3.245c39.165,9.854,80.163,15.097,122.387,15.097,164.043,0,309.634-79,400.806-201.029.495-1.963.612-3.825,1.166-4.658.416-.624,2.081-1.097,3.725-2.015,59.334-82.209,94.303-183.168,94.303-292.298,0-134.306-52.958-256.239-139.126-346.069ZM671.854,669.161c-.898-.767-9.309-10.581-9.593-11.266-.792-1.907-1.074-4.856.611-6.341h0c5.807-5.115,7.548,4.392,8.926,6.071,1.582,1.927,7.674,3.666,8.645,5.208,2.679,4.256-3.782,10.43-8.589,6.327ZM882.286,760.741c-2.104.803-3.827,2.948-5.693,3.528-12.671,3.938-15.536-15.529-19.791-23.615-10.605-1.749-20.031.495-29.437-5.574-1.555-1.002-2.017-3.284-3.319-3.687-2.243-.694-5.737.455-7.144-.382-.929-.554-6.096-18.922-5.747-20.95.349-2.029,2.557-4.642,3.243-7.361,3.441-13.646,1.85-14.27,10.413-26.479,1.353-1.929.989-4.991,2.762-6.565,1.46-1.296,3.096.336,4.471.18.855-.097,1.167-3.784,4.341-2.967,1.537.396,11.326,9.698,11.943,11.07,3.368,7.478-2.331,11.917-2.618,15.809-.206,2.792,4.001,5.382-.233,9.643h-.001c3.707-.608,8.404,2.92,11.186,3.258,2.415.292,4.507-1.328,7.521-.746,2.991.577,4.474,4.029,7.237,4.477,3.476.564,7.234-1.822,10.864-1.188l-.006,6.961c11.129-1.215,17.264,13.325,24.763,19.719.594,16.531-12.323,20.127-24.756,24.87Z" style="fill: #02e743;"/>
  <path d="M751.152,792.59c.72-4.231-1.052-8.73-5.756-9.265l.002.003s-.001,0-.002,0c-.125,5.607-2.65,5.603-4.04,10.397l9.797-1.135Z" style="fill: #02e743;"/>
  <polygon points="745.395 783.326 745.395 783.329 745.397 783.329 745.395 783.326" style="fill: #02e743;"/>
  <path d="M457.854,792.143c1.203,5.773-8.37,8.047-10.394,13.184,4.743-.644,16.091-1.077,19.532-4.066,1.435-1.245,1.766-3.562,2.973-5.116.326-.42,7.468-5.176,3.19-5.845-3.565-.557-7.653-2.265-4.806-6.804h0c.357-.568,7.456-2.116,6.719-5.357-10.799-9.662-10.93,5.662-11.692,6.16-1.605,1.048-6.141-.192-7.685,4.448-1.121,3.368,1.957,2.401,2.164,3.395Z" style="fill: #02e743;"/>
  <path d="M584.344,909.593c-8.401-.674-6.497,6.69-2.87,11.556,4.115-2.763,2.788-7.251,2.87-11.556Z" style="fill: #02e743;"/>
  <path d="M487.812,768.923c.398,2.533-2.401,7.472-1.066,9.602.55.878,6.478,1.74,6.811,3.254.533,2.426-1.394,5.342-1.032,7.692.574,3.719,7.019,6.282.394,11.249-2.958,2.217-8.094,1.069-6.369,6.133.786,2.306,7.293,1.418,2.327,7.737,14.242,4.906,25.009,6.98,30.975-9.714-1.419-2.789-8.639-4.677-9.697-6.49-.92-1.576-.309-4.024-1.158-5.784-.968-2.003-4.819-2.686-5.752-4.632-1.43-2.984-.336-6.358-3.066-10.812-3.154-5.143-9.919-5.635-7.894-13.864.233-.945,6.823-3.374,4.637-6.596-.941-1.388-18.851,2.523-8.049-10.424h.001c-1.786-.171-3.735-.364-4.424,1.904-.25.824-1.539,16.345-1.369,17.189.799,3.971,4.513,2.159,4.732,3.556Z" style="fill: #02e743;"/>
  <path d="M653.402,543.522l9.172-1.141-14.393-13.875c-4.298-5.761-7.867-12.741-10.646-19.398-1.304-3.122-4.275-15.918-4.882-16.526-1.395-1.396-2.049.198-2.583,1.436-3.501,8.116,5.438,24.944,10.671,31.554,4.417,5.578,12.777,9.855,12.661,17.951Z" style="fill: #02e743;"/>
  <path d="M616.559,410.35c-5.78.307-6.38,4.201-5.745,9.251,7.44-.633,4.177-4.32,5.745-9.251Z" style="fill: #02e743;"/>
  <path d="M545.254,553.975c2.714,2.988,2.701-6.122,2.355-7.395-.524-1.93-7.808.699-5.866-6.88,1.204-4.699,10.519,2.379,11.548,1.522-1.122-1.159-2.95-4.845-3.788-5.432h-.001c-.457-.321-10.046-3.553-10.603-3.513-1.295.093-2.705,2.472-2.901,3.821-.686,4.727,5.048,9.13,7.355,12.365,1.334,1.87,1.705,5.297,1.9,5.512Z" style="fill: #02e743;"/>
  <path d="M428.625,664.812c-2.363-.132-4.885-2.511-7.619-1.943,2.363,5.607.366,6.557-2.301,10.979,8.554,4.485,12.642,10.688,23.328,6.137,3.092-1.317,10.57-12.384,7.59-15.829h-.001c-2.012-2.328-17.238.868-20.997.657Z" style="fill: #02e743;"/>
  <path d="M110.016,213.338c-5.368,7.271-10.517,14.701-15.465,22.263,4.995-7.555,10.192-14.965,15.579-22.225-.038-.013-.076-.024-.114-.037Z" style="fill: #02e743;"/>
  <path d="M11.968,504.82c.04-3.298.12-6.586.224-9.868-.155,3.418-.239,6.747-.224,9.868Z" style="fill: #02e743;"/>
  <path d="M33.393,539.494c2.132.702,4.403-.969,7.152-.41,1.971.401,4.035,2.971,4.87,2.975,2.225.009,7.935-9.001,7.491,3.806,2.676-1.453,1.578-4.614,5.685-3.441l2.929,8.053c3.293-4.394,7.093-1.762,7.477,3.029.166,2.082-1.218,4.495-.971,5.587.089.394,5.171,5.671,5.521,5.869,1.153.653,3.89-1.561,5.285.529l.515,8.18c6.158-.145,11.693-.819,16.697,3.457,3.593,3.069,3.856,7.498,6.262,9.912,2.876,2.885,7.814,2.777,11.566,8.04,1.563,2.192,1.918,5.357,2.56,6.108.834.977,5.134,1.599,7.044,2.765,3.521,2.152,7.797,6.954,7.655,11.406,2.679-1.787,4.578-5.502,7.202-7.333,3.392-2.366,8.561-2.745,8.897-3.091,3.327-3.427-9.179-8.507-4.511-13.811,7.479-2.288,7.906,8.512,14.851,7.453-3.426-5.435-5.138-7.874-10.439-11.497-8.023-5.485-26.371-11.093-32.051-16.375-.833-.775-2.138-2.549-2.224-3.59-.52-6.303,14.097,1.351,16.792,1.693,2.407.307,4.082-1.387,7.25-.466,7.366,2.139,16.9,13.875,22.116,16.04,2.675,1.109,5.757.351,7.756,1.457,6.994,3.872,10.719,25.579,14.937,31.293,1.145,1.551,21.339,16.479,23.753,17.773,6.969,3.734,12.234-2.189,10.754-9.668-.899-4.545-11.505-9.849-10.317-13.89,3.478-3.587,9.537-1.472,13.789-.618,1.42-9.261-6.62-25.44,9.017-22.149,2.12-6.372,9.777-10.497,12.263-16.076,5.078-11.394-6.636-4.847-12.076-7.519-1.052-.517-6.954-9.382-6.947-10.468.016-2.805,3.776-2.614,4.48-4.77.815-2.497-.552-5.726.742-8.52,2.121-4.576,10.521-3.035,10.942-3.46.245-.247-.416-4.707.584-6.945,1.052-2.352,8.703-8.478,9.529-11.25,1.138-3.815-2.141-21.798-4.382-23.509-2.293-1.752-4.122,5.195-5.627,6.48-4.269,3.645-13.588,1.379-17.95-1.821-3.567,10.756-15.755,18.721-27.067,15.644-3.973-1.08-13.161-8.146-16.825-8.463-1.617-.139-14.447,4.827-18.528,5.261-8.919.951-18.341-8.972-14.628-17.089,2.427-5.305,25.8-17.432,32.774-13.908-.096-7.091.007-21.755,4.586-27.288,4.416-5.337,2.559-3.283,5.541-9.433,1.309-2.7,5.468-9.464,5.787-11.636.444-3.018-4.588-9.989-1.611-14.272,2.732-3.931,11.582,1.298,12.736,1.199,1.999-.17,1.405-5.341,2.288-6.92,2.584-4.621,19.357-1.133,23.839.323,12.103,3.93,20.808,16.409,27.927,26.298.991-.015,7.276-15.476,12.617-13.869,3.954,2.91.652,7.871.756,11.06.016.506,2.489,9.144,2.772,9.741,1.007,2.12,8.359,6.638,10.88,9.891,1.66,2.141,2.706,6.229,3.741,7.235.557.541,13.266,5.611,14.361,5.837,10.435,2.159,12.455-9.884.767-10.071-2.079-.034-3.912,1.09-5.702,1.107-13.872.134-4.951-22.397,2.391-22.035,1.763.087,3.218,2.566,4.551,2.295,1.473-.298,4.029-13.703,13.322-8.664l2.229-6.399c-6.517-3.556-11.197,6.754-12.305,7.007-2.282.521-4.683-1.032-6.799-1.11-5.59-.206-7.114,2.078-12.57-3.54-7.883-8.116,1.53-7.218,1.863-8.891.524-2.628-2.166-7.025-2.425-10.282-1.153-14.5,13.647-16.226,14.849-19.877,1.179-3.577-2.236-8.825-2.2-12.58.031-3.239,2.274-4.569,2.325-7.492-9.319,3.419-8.499-.669-5.956-7.751,1.035-2.881,5.436-11.987,8.858-12.002,2.817.274,3.601,3.478,4.026,5.844,1.814.385.992-2.069,2.281-2.883,1.382-.872,3.47-.218,4.375-.804,1.803-1.165,1.857-9.912,3.668-11.957,2.764-3.121,10.781-3.313,12.695-4.592,1.475-.987,2.983-8.798,4.886-10.717,2.091-2.108,10.667-3.488,11.04-3.943.366-.447,1.076-9.037,1.883-11.424.939-2.777,3.519-5.085,3.975-7.582.467-2.562-.911-7.883,1.122-9.295,1.497-1.039,8.013-.314,11.379-1.284,3.644-1.051,7.116-4.742,10.906-6.393,6.577-2.865,18.265-7.499,24.961-9.616,5.327-1.684,15.709-.999,18.749-2.837,1.095-.662,3.339-5.328,4.781-7.065,1.56-1.881,4.403-2.437,5.526-4.856,1.903-4.102-.451-10.243,1.878-13.167,1.843-2.314,6.971-1.314,8.712-3.97,1.181-1.803.946-5.915,2.908-8.063-5.766.029-28.066-9.523-19.048-17.464,4.937-4.347,16.403-1.13,13.297-13.828-3.685-1.299-7.099,2.121-9.83,2.291-2.538.157-5.174-1.948-7.855-1.009-1.833.642-1.059,3.511-3.58,3.483-7.801-.086-9.542-14.519-5.744-19.794,2.595-3.605,9.149-4.432,13.196-5.831-.13-2.178-3.654-.698-5.746-1.717-2.359-1.148-2.887-4.109-1.763-6.403,1.134-2.313,4.928-1.183,4.06-4.601-6.502.406-13.465,5.754-19.505,1.682-2.183-1.473-3.408-4.841-3.674-4.999-3.535-2.1-23.085,18.232-25.527,1.981-.637-4.238.263-5.609,2.168-8.448v-.003c1.328-1.982,7.418-8.02,7.403-9.343-.01-.823-1.269-2.155-2.776-.503-3.227,3.535-11.753,17.601-12.817,21.941-1.569,6.403,5.301,9.716-1.615,19.175-.899,1.228-3.327,1.327-3.558,2.459-.748,3.665,4.768,10.274-2.16,12.615-7.102,2.401-6.841-3.616-3.503-8.125l-4.591-2.957c-.039,3.516.309,7.021-.506,10.505-2.326,9.943-9.534,5.172-15.925,8.289-5.303,2.586-12.982,10.574-19.333,14.126-11.282,6.309-15.14,3.268-26.922,4.166-1.996.152-14.788,1.959-15.384,2.463-.224.191-.789,3.876-1.925,5.591-5.433,8.205-13.294,3.228-19.613,3.593-2.273.131-2.95,2.592-4.742,3.165-9.365,2.997-15.427-7.967-17.96-7.701-1.213.128-2.872,1.789-4.869,2.09-2.548.384-5.164-.357-7.729.318-1.925.506-3.346,2.948-6.13,3.231-3.586.364-4.971-2.566-7.384-1.916-4.41,1.188-6.761,8.885-13.187,8.891-1.693.001-3.378-1.242-4.54-1.233-.713.005-.692,1.799-1.483,2.356-5.28,3.717-17.484-13.332-4.932-13.93-2.164-3.122-6.824-2.407-10.957-4.587-6.332-3.341-22.839-20.467-28.781-20.843-1.904-.12-3.82,1.088-5.71,1.114-8.31.116-15.896.431-23.851-2.353-5.387,7.26-10.584,14.67-15.579,22.225C50.473,302.959,23.183,381.331,14.945,461.895c-.861,8.417-2.218,21.236-2.753,33.057-.104,3.282-.184,6.57-.224,9.868.021,4.343.234,8.277.731,11.44.547,3.488,17.302,22.117,20.694,23.234ZM297.324,308.405l5.18,8.102c.35-4.42,2.776-14.391,6.609-6.056,3.089,6.717.687,31.805-10.042,25.18-1.335-.824-5.036-7.461-4.592-9.212,1.086-4.284,6.885,1.574,8.032.513h0c3.183-2.945-8.851-4.671-9.317-5.326-2.524-3.539-.895-12.306,4.13-13.202ZM265.633,310.792h0c1.662,2.872-.148,5.614.266,8.319,1.438,9.404.841,9.932.85,18.832.006,4.931,5.037,21.167-5.625,16.19-3.71-1.732-9.42-19.948-9.314-24.299.154-6.329,6.011-20.358,13.823-19.042ZM227.33,334.021h0c3.742-1.273,9.976,3.311,11.378,6.785,1.637,4.056,2.614,19.987-2.458,20.834-4.995.834-4.89-10.273-5.594-12.728-.879-3.07-9.19-12.897-3.327-14.89ZM211.491,350.836c.477.832,4.663,11.911,4.687,12.583.161,4.398-4.068,6.789-7.656,3.707-7.164-6.153-3.785-28.086,2.968-16.29ZM119.651,407.558c1.675-8.678,25.428-20.547,31.874-14.305v-.002c4.515,4.373-3.999,6.711-3.15,7.805,2.037.095,3.621,1.117,5.179,2.326,5.461,4.234.903,3.655-2.314,5.789-5.364,3.558-5.217,2.479-10.405,4.582-4.155,1.685-13.203,6.721-16.936,5.654-6.042-1.727-.836-5.786-.851-6.178-.044-1.217-4.436-.292-3.398-5.671ZM63.181,479.441c.672-2.835,18.811.018,22.692-2.88l10.727-5.974c-10.178-2.034-19.621-2.796-29.905-1.168-.676-6.973.986-10.752,7.994-12.228,3.163-.666,16.505-1.412,17.953.58,3.709,5.104-3.81,1.69-2.931,5.835,3.394,1.896,9.803,2.249,12.617,4.104,2.068,1.363,1.529,3.83,3.474,4.014-1.961-4.257-3.89-27.003-.978-28.783.847-.518,5.535-.469,6.509.08v-.002c.795.448,2.265,5.201,3.242,6.57,5.02,7.041,11.961,12.511,10.543,22.421-.725,5.07-5.333,11.153-10.674,11.414-2.339.115-5.339-2.179-6.881-.138-3.43,4.539.724,6.705.641,10.973-.025,1.274-2.172,10.9-2.659,12.533-.618,2.072-5.95,13.938-7.141,14.847-4.3,3.283-15.494-5.605-10.996-11.678l-6.906.003c-1.941,2.202,6.844,11.919,8.298,14.228,1.283,2.039,1.525,4.572,2.719,6.528.899,1.472,3.392,1.183,3.974,4.141,1.179,5.985-1.613,11.583-8.422,9.866-1.605-.405-4.257-8.701-5.613-10.824-3.68-5.763-18.541-22.271-18.198-27.916.782-12.839,14.598-1.724,18.774-3.099,1.718-.566,2.208-3.371,3.643-4.519,4.723-3.78,13.493-5.914,4.431-11.402-7.238-4.383-7.727-.95-12.631-.516-2.9.257-7.622-.713-11.098.161-2.742-.769-3.798-4.636-3.196-7.172Z" style="fill: #02e743;"/>
  <path d="M333.059,467.182c-1.156-.2-.429-3.229-1.723-4.244-1.148-.9-7.496,1.292-9.257-3.373,1.079-1.916,5.581.83,5.735.584.323-.516-.379-3.76.577-5.799,1.503-3.201,6.865-1.878,6.33-5.779h-.003c-9.156-1.321-8.361.674-13.16,5.872-1.093,1.183-3.802,2.179-3.941,2.42-.77,1.331,1.102,4.28,1.013,6.181-.162,3.437-1.906,6.439-1.144,10.391.835,4.334,6.063,3.729,4.354,11.363-.904,4.043-5.041,5.478-6.069,7.809-1.323,3.001-.376,6.55-2.422,10.303-1.002,1.84-8.996,8.757-10.926,9.839-8.275,4.642-10.915-1.783-15.447-1.587-1.913.083-4.81,3.711-7.333,2.121-1.817-1.146-3.978-17.564-10.486-17.216,2.784,6.236,8.591,13.028,4.479,20.139-1.385,2.395-4.127,2.776-4.393,3.17-.456.677,1.205,2.978.858,4.787-.4,2.088-4.154,4.97-4.381,8.473-.266,4.105,4.533,6.594,3.448,10.912,5.717-2.316,2.523-16.308,9.618-13.762,5.696,2.045-1.526,10.21-1.371,11.82.072.753,2.055,6.247,3.809,5.411,1.202-.573,12.056-19.153,14.523-22.441,4.401-5.866,9.884,1.286,10.141,6.893.326,7.096-4.219,10.794-5.666,16.708,15.55,1.326,10.292-5.468,11.516-15.614.99-8.207,1.497-19.029,12.629-15.661-5.667-11.691,5.645-10.259,6.757-13.473,1.449-4.19-2.041-9.313-.793-13.497,1.21-4.055,6.182-2.722,6.642-3.193.439-.449-.491-6.304,1.211-8.047-12.776.816-1.445-14.139,4.545-8.647,1.988,1.823,1.919,5.315,4.642,6.319.705-1.836-4.195-11.099-4.757-11.431-2.01-1.187-6.204,2.826-9.554,2.246Z" style="fill: #02e743;"/>
  <path d="M339.439,369.221c.068,3.741-1.845,7.606-5.299,4.064-2.417-2.478-.465-6.796-2.851-8.115-1.53,16.666-12.374,17.907-8.059-1.169-9.872-1.572-13.498,2.641-13.874,12.132-.433,10.91,6.542,16.391,4.671,27.259,4.089,1.437,5.821-3.087,8.677-3.52,3.45-.522,6.313,2.301,6.864,2.254,1.972-.168,3.639-11.791,10.904-6.849-.616-7.052-.133-9.647,4.587-14.546.905-.94,3.106-1.513,3.31-1.861h0l-3.299-19.497c-9.178,5.222-5.771,2.124-5.631,9.848Z" style="fill: #02e743;"/>
  <polygon points="404.895 467.093 404.895 467.093 404.894 467.093 404.895 467.093" style="fill: #02e743;"/>
  <path d="M418.157,469.344c2.213-.117,3.441-2.659,5.66-2.891,4.961-.517,13.742,3.825,17.262-.594,5.848-7.342-12.038-15.286-11.442-23.081-1.83,2.604-9.169,3.44-9.682,6.516-.494,2.96,9.278,8.945,3.76,10.713-4.15,1.329-8.012-2.604-10.143-5.696-1.751-2.542-.776-6.464-4.055-5.745l-4.621,18.526c4.264-1.725,10.371,2.405,13.261,2.251Z" style="fill: #02e743;"/>
  <path d="M190.939,643.743c-4.567-3.186-14.314-1.574-19.56-.563,3.007,2.536,2.535,6.465,3.798,8.923.299.583,2.238.884,3.245,3.125,2.052,4.565-1.838,6.383-1.39,9.211.087.549,5.719,3.157,4.713,6.527,5.412-1.512,4.639-5.329,6.384-8.088.606-.956,2.384-.969,2.666-1.336h0c.619-.808-3.386-8.241-3.226-10.926.186-3.125,6.051-5.004,3.37-6.874Z" style="fill: #02e743;"/>
  <path d="M364.991,354.389h0c-.974-1.16-2.81-6.612-4.383-6.581-.492.009-2.088,2.842-3.701,3.294-3.48.976-5.821-2.35-7.629-1.981-7.557,1.544,2.381,8.132,3.681,9.847,1.64,2.163,5.202,11.697,6.524,11.992,2.672.598,8.462-9.398,10.821-11.164.475-2.641-4.178-4.057-5.312-5.407Z" style="fill: #02e743;"/>
  <path d="M392.18,454.712c-1.327-2.303-.671-6.435-1.244-7.148h0c-.318-.396-6.128-1.483-7.256-1.344-8.233,1.015-.31,13.639-1.722,18.498l18.342,1.221c2.529-9.161-6.25-7.981-8.121-11.227Z" style="fill: #02e743;"/>
  <path d="M270.301,455.52c-4.346,1.822-17.877,3.947-13.856,9.904,1.281,1.897,4.666,3.205,4.678,6.302l7.366-8.196,1.812-8.009Z" style="fill: #02e743;"/>
  <path d="M357.73,460.147c6.241,1.39,6.657-1.588,6.674-7.533.013-4.922-1.673-10.026.227-15.627-10.966,3.171-4.306,14.808-6.9,23.16Z" style="fill: #02e743;"/>
  <path d="M343.924,418.454c-5.893,2.907-14.268.62-14.943,9.255,2.76.21,3.725-2.621,6.067-3.725,2.979-1.404,8.883-.82,8.875-5.53Z" style="fill: #02e743;"/>
  <path d="M209.333,233.117h-.001c-1.014-.837-15.654,8.495-19.541,4.632-2.11,6.455,8.818,2.044,12.632.567.891-.344,9.044-3.435,6.909-5.199Z" style="fill: #02e743;"/>
  <path d="M233.511,229.037c2.906,7.309,6.677,3.641,9.189-1.706-1.486.502-10.462-1.498-9.189,1.706Z" style="fill: #02e743;"/>
  <path d="M118.163,612.213h0c-1.42-1.634-5.656-1.482-7.752-1.467,2.039,4.608,7.392,5.3,10.925,8.094,4.288,3.391,4.345,8.528,12.076,6.946l-13.306-9.198c-1.436-.931-1.213-3.535-1.943-4.376Z" style="fill: #02e743;"/>
  <path d="M136.411,403.451c-5.348.232-6.972,3.588-8.745,8.035,1.821,1.425,19.188-8.487,8.745-8.035Z" style="fill: #02e743;"/>
</svg>